<svg width="10" height="10" viewBox="0 0 10 10" fill="none" xmlns="http://www.w3.org/2000/svg">
    <path fill-rule="evenodd" clip-rule="evenodd" d="M2.903 1.445a.898.898 0 0 0-.646.596l-.036.102-.003 2.586-.004 2.586-.17.09c-.176.091-.22.125-.244.193a3.07 3.07 0 0 0-.014.413c0 .364 0 .376.03.435.022.042.05.071.09.093l.058.032 2.415-.003 2.415-.004.037-.029a.392.392 0 0 0 .065-.067c.026-.036.027-.06.031-.418.003-.208 0-.4-.004-.424-.013-.078-.068-.127-.25-.221l-.172-.09V5.73c0-.872.005-1.585.012-1.585a.804.804 0 0 1 .387.433c.02.058.023.152.03 1.089.007.982.009 1.029.034 1.103a.642.642 0 0 0 .609.45c.277 0 .51-.172.609-.45.027-.076.027-.107.031-1.829.003-1.195 0-1.768-.01-1.802a.251.251 0 0 0-.05-.09 5.401 5.401 0 0 0-.49-.273c-.486-.253-.51-.261-.607-.213-.065.032-.103.094-.11.18-.01.134.035.183.288.312.143.073.148.077.138.112a.454.454 0 0 0 .002.127.744.744 0 0 0 .332.496l.081.052V6.61l-.03.056c-.033.06-.123.118-.184.118-.057 0-.151-.058-.18-.111-.027-.048-.028-.078-.035-1.068l-.007-1.019-.031-.098a1.231 1.231 0 0 0-.486-.658c-.088-.06-.27-.144-.31-.144-.02 0-.022-.09-.026-.771-.004-.703-.006-.778-.029-.848a.94.94 0 0 0-.192-.35.843.843 0 0 0-.359-.247l-.107-.038-1.413-.003c-1.139-.002-1.43.001-1.495.016zm2.93.472a.458.458 0 0 1 .204.218l.029.064.007 2.66c.006 2.641.006 2.659.033 2.707.023.04.062.067.211.147l.184.097v.314H2.214V7.81l.184-.097c.15-.08.189-.107.211-.147.027-.048.027-.066.034-2.7l.007-2.653.03-.07a.462.462 0 0 1 .284-.253c.047-.013.377-.016 1.427-.014l1.367.002.076.04zm-2.635.644a.24.24 0 0 0-.12.152c-.004.024-.006.467-.003.982.003.922.004.939.031.976a.391.391 0 0 0 .065.068c.036.028.046.029 1.187.029 1.14 0 1.15 0 1.187-.03a.392.392 0 0 0 .065-.067c.027-.038.027-.05.027-1.013 0-.963 0-.976-.027-1.014a.392.392 0 0 0-.065-.067c-.037-.028-.049-.029-1.171-.032-.923-.002-1.142 0-1.176.016zm2.017 1.097v.67H3.5v-1.34H5.215v.67z" fill="#181021"/>
</svg>
