<svg width="10" height="10" viewBox="0 0 10 10" fill="none" xmlns="http://www.w3.org/2000/svg">
    <path fill-rule="evenodd" clip-rule="evenodd" d="M4.239 1.449a.287.287 0 0 0-.08.055c-.018.02-.399.84-.846 1.822-.728 1.6-.813 1.794-.813 1.863 0 .087.03.14.114.195l.05.033h.861c.813 0 .86.002.853.026a133.12 133.12 0 0 0-.772 2.898c0 .086.044.158.122.198.083.043.16.043.232 0 .037-.02.75-.812 1.936-2.147a538.376 538.376 0 0 0 1.919-2.164.237.237 0 0 0-.002-.273c-.082-.105-.037-.1-1.116-.1-.534 0-.97-.004-.97-.008 0-.005.181-.481.404-1.06.222-.578.408-1.075.413-1.105.012-.076-.045-.177-.123-.22l-.061-.034H5.322c-.83.001-1.047.005-1.083.021zm1.701.468c0 .007-.182.486-.404 1.064-.43 1.116-.436 1.137-.378 1.233.015.024.05.059.08.077.053.032.062.032.944.04l.89.007-1.356 1.528c-.745.84-1.357 1.526-1.358 1.525-.002-.002.127-.485.286-1.073.175-.65.289-1.098.289-1.14a.226.226 0 0 0-.122-.199c-.052-.03-.078-.03-.875-.035-.769-.004-.82-.006-.811-.03.005-.014.315-.697.69-1.517l.679-1.493h.723c.398 0 .723.006.723.013z" fill="#181021"/>
</svg>
