<svg width="50" height="50" viewBox="0 0 50 50" fill="none" xmlns="http://www.w3.org/2000/svg">
    <path fill-rule="evenodd" clip-rule="evenodd" d="M7.22 8.98c-.724.19-1.356.76-1.669 1.504-.24.574-.231 1.584.021 2.143.243.54.69 1.02 1.184 1.271l.397.202h35.714l.397-.202c.493-.25.94-.73 1.183-1.27.252-.56.262-1.57.021-2.144a2.694 2.694 0 0 0-1.166-1.308l-.435-.233-17.704-.013c-9.737-.007-17.811.015-17.943.05zm-.106 13.505c-.643.215-1.225.755-1.544 1.431-.145.308-.178.51-.178 1.091 0 .607.03.775.202 1.132.24.501.663.958 1.136 1.229l.346.198h35.868l.384-.224c.855-.498 1.302-1.3 1.302-2.335 0-1.036-.447-1.838-1.302-2.335l-.384-.224-17.82-.014c-9.8-.008-17.904.015-18.01.05zm-.47 13.701c-1.783 1.008-1.695 3.688.152 4.692l.357.193h35.714l.435-.233a2.694 2.694 0 0 0 1.166-1.308c.241-.574.231-1.584-.02-2.143-.244-.54-.691-1.02-1.184-1.271l-.397-.202h-17.87l-17.87-.002-.484.274z" fill="#5EBABB"/>
</svg>
