<svg width="25" height="25" viewBox="0 0 25 25" fill="none" xmlns="http://www.w3.org/2000/svg">
    <path fill-rule="evenodd" clip-rule="evenodd" d="M5.035 3.984c-.352.111-.624.363-.8.743l-.095.204-.01 8.052c-.008 6.267 0 8.087.032 8.208a.798.798 0 0 0 .468.483c.102.031.506.044 1.399.044h1.255l.01-2.145.01-2.144.109-.211a1.46 1.46 0 0 1 .608-.6l.186-.1h2.573l.199.1c.384.19.64.532.722.967.02.111.035.98.035 2.16v1.973h3.129l-.009-7.799-.009-7.798-.095-.195a1.424 1.424 0 0 0-.599-.61c-.214-.106-.182-.1-3.651-.63l-3.68-.562c-1.295-.198-1.54-.217-1.787-.14zm3.42 3.052c.175.083.268.236.284.466.01.16-.001.216-.068.315-.16.238-.25.263-.954.276-.382.007-.685-.003-.77-.026a.631.631 0 0 1-.408-.455c-.031-.186.087-.44.257-.554.112-.075.15-.079.829-.079.584 0 .732.01.83.057zm3.733.022c.166.114.248.242.268.418a.556.556 0 0 1-.258.523c-.127.08-.157.083-.845.083-.687 0-.717-.003-.844-.083a.556.556 0 0 1-.258-.522c.02-.177.101-.305.268-.42.11-.075.145-.078.834-.078.69 0 .725.003.835.079zM8.455 9.276c.175.084.268.237.284.466.01.161-.001.216-.068.316-.16.237-.25.263-.954.276-.382.007-.685-.004-.77-.027a.631.631 0 0 1-.408-.454c-.031-.186.087-.441.257-.555.112-.075.15-.078.829-.078.584 0 .732.01.83.056zm3.733.022c.166.114.248.242.268.419a.556.556 0 0 1-.258.523c-.127.08-.157.082-.845.082-.687 0-.717-.002-.844-.082a.556.556 0 0 1-.258-.523c.02-.177.101-.305.268-.419.11-.075.145-.078.834-.078.69 0 .725.003.835.078zm3.442 6.96v5.462l2.65-.01 2.651-.01.232-.11c.287-.138.494-.347.634-.643l.108-.227V12.843l-.09-.194a1.329 1.329 0 0 0-.782-.714c-.165-.054-5.272-1.14-5.36-1.14-.035 0-.043 1.116-.043 5.462zm-7.175-4.741c.175.084.268.236.284.466.01.16-.001.216-.068.315-.16.238-.25.264-.954.276-.382.007-.685-.003-.77-.026a.631.631 0 0 1-.408-.455c-.031-.186.087-.44.257-.554.112-.075.15-.079.829-.079.584 0 .732.01.83.057zm3.733.022c.166.114.248.242.268.419a.556.556 0 0 1-.258.523c-.127.079-.157.082-.845.082-.687 0-.717-.003-.844-.082a.556.556 0 0 1-.258-.523c.02-.177.101-.305.268-.42.11-.075.145-.078.834-.078.69 0 .725.003.835.079zm-3.733 2.219c.175.083.268.236.284.466.01.16-.001.216-.068.315-.16.237-.25.263-.954.276-.382.007-.685-.004-.77-.027a.631.631 0 0 1-.408-.454c-.031-.186.087-.441.257-.554.112-.076.15-.08.829-.08.584 0 .732.01.83.058zm3.733.021c.166.114.248.242.268.42a.556.556 0 0 1-.258.522c-.127.08-.157.082-.845.082-.687 0-.717-.003-.844-.082a.556.556 0 0 1-.258-.523c.02-.177.101-.305.268-.419.11-.075.145-.078.834-.078.69 0 .725.003.835.078zm7.252.186c.183.138.24.25.24.47 0 .222-.057.334-.24.471-.087.066-.153.073-.78.084-.774.012-.888-.008-1.044-.186a.555.555 0 0 1-.014-.722c.162-.193.23-.207 1.024-.197.664.008.726.014.814.08zm0 2.24c.183.138.24.25.24.471 0 .222-.057.334-.24.47-.087.067-.153.074-.78.084-.774.013-.888-.007-1.044-.186a.555.555 0 0 1-.014-.721c.162-.194.23-.207 1.024-.198.664.008.726.014.814.08zm0 2.242c.183.137.24.248.24.47 0 .221-.057.333-.24.47-.087.066-.153.073-.78.084-.774.013-.888-.008-1.044-.186a.555.555 0 0 1-.014-.722c.162-.193.23-.206 1.024-.197.664.008.726.014.814.08z" fill="#fff"/>
</svg>
